<?xml version="1.0" encoding="UTF-8"?>
<svg version="1.1" xmlns="http://www.w3.org/2000/svg" width="1024" height="1024">
<path d="M0 0 C337.92 0 675.84 0 1024 0 C1024 337.92 1024 675.84 1024 1024 C686.08 1024 348.16 1024 0 1024 C0 686.08 0 348.16 0 0 Z " fill="#331EA3" transform="translate(0,0)"/>
<path d="M0 0 C1.45911863 -0.00542423 2.91823177 -0.01254858 4.37733459 -0.02124023 C8.32987263 -0.03944106 12.28199198 -0.03241968 16.23453712 -0.01972389 C20.3757297 -0.00957933 24.51688703 -0.01899361 28.65808105 -0.02526855 C35.61180033 -0.03254073 42.56534953 -0.0229686 49.51904297 -0.00390625 C57.55236996 0.01786176 65.58529084 0.01081008 73.618608 -0.01121187 C80.52241025 -0.02937818 87.42609041 -0.03191821 94.32990885 -0.0214572 C98.45038921 -0.015229 102.57067883 -0.01436798 106.69114685 -0.02760315 C110.56549985 -0.03917906 114.43933052 -0.03110472 118.31362724 -0.00802612 C119.73337882 -0.00274824 121.15317454 -0.00423711 122.5729084 -0.01307678 C133.25950832 -0.07346765 133.25950832 -0.07346765 138.25280762 1.92492676 C146.89856656 10.95059765 151.70739732 24.16992608 157.23974609 35.24975586 C158.29448075 37.35487334 159.34954843 39.45982398 160.40492249 41.56462097 C163.25746325 47.25636042 166.10491487 52.95063112 168.95110464 58.64554858 C171.62940335 64.00335349 174.31067273 69.35967121 176.99162211 74.71615005 C182.61963945 85.96133581 188.24246488 97.20911151 193.86369921 108.45768911 C199.00849009 118.75245231 204.1598679 129.0439032 209.31431983 139.33383214 C214.61204619 149.90993192 219.90534255 160.48823776 225.19382393 171.06896359 C228.16107593 177.00538162 231.13019768 182.94085068 234.10375595 188.87411308 C236.8948835 194.4438475 239.68025488 200.01642195 242.46113396 205.59127998 C243.48462502 207.64063903 244.51018205 209.68896774 245.53790855 211.73620605 C246.93567085 214.52135734 248.32605943 217.3100655 249.71456909 220.09983826 C250.12680784 220.91694147 250.53904659 221.73404468 250.96377742 222.5759086 C251.33280056 223.32116141 251.70182369 224.06641422 252.08202934 224.83425045 C252.56471159 225.79953243 252.56471159 225.79953243 253.057145 226.78431505 C253.73632812 228.51757812 253.73632812 228.51757812 253.73632812 231.51757812 C254.39632813 231.51757812 255.05632812 231.51757812 255.73632812 231.51757812 C255.91033646 230.96278778 256.08434479 230.40799744 256.2636261 229.83639526 C257.98713512 224.4868423 260.01184862 219.41950237 262.40429688 214.33789062 C262.93214531 213.20091484 262.93214531 213.20091484 263.47065735 212.04096985 C264.22540045 210.41662136 264.98230757 208.79327688 265.74121094 207.17086792 C267.35809486 203.71416938 268.96437759 200.25257765 270.57144165 196.79130554 C271.40029543 195.00647223 272.22970595 193.22189737 273.05966187 191.43757629 C276.81623538 183.3591608 280.53112446 175.26207642 284.23052979 167.15734863 C285.22814296 164.97300015 286.22784351 162.78961776 287.22802734 160.60644531 C290.13880677 154.24754131 293.02839663 147.88175811 295.84960938 141.48242188 C296.31238281 140.43965088 296.77515625 139.39687988 297.25195312 138.32250977 C298.08795084 136.43380333 298.91544474 134.54129859 299.73242188 132.64428711 C300.09078125 131.83677002 300.44914062 131.02925293 300.81835938 130.19726562 C301.27045776 129.15675049 301.27045776 129.15675049 301.73168945 128.09521484 C302.73632812 126.51757812 302.73632812 126.51757812 305.73632812 125.51757812 C308.17773438 126.57226563 308.17773438 126.57226563 311.29882812 128.39257812 C311.87874512 128.72974854 312.45866211 129.06691895 313.05615234 129.41430664 C317.55362769 132.08373607 321.93234768 134.9315234 326.30273438 137.80273438 C327.16926384 138.37187561 327.16926384 138.37187561 328.05329895 138.95251465 C330.99253719 140.88654302 333.92456123 142.83059618 336.84790039 144.78857422 C337.93772217 145.51254395 339.02754395 146.23651367 340.15039062 146.98242188 C341.12959473 147.63847412 342.10879883 148.29452637 343.11767578 148.97045898 C346.24674316 150.86760993 346.24674316 150.86760993 349.73632812 151.51757812 C352.44964482 150.55100656 352.44964482 150.55100656 355.27148438 148.99023438 C356.32787109 148.44560547 357.38425781 147.90097656 358.47265625 147.33984375 C359.57029297 146.75912109 360.66792969 146.17839844 361.79882812 145.58007812 C363.97446564 144.44070096 366.15273643 143.30633365 368.33398438 142.17773438 C369.29828369 141.66863525 370.26258301 141.15953613 371.25610352 140.63500977 C373.73632812 139.51757812 373.73632812 139.51757812 376.73632812 139.51757812 C375.06006443 145.48427867 372.13632648 150.70428998 369.23632812 156.14257812 C365.27606547 163.64410361 361.37565034 171.16577415 357.61132812 178.76757812 C354.16117432 185.71747447 350.61319357 192.6052457 346.97802734 199.45996094 C342.66457769 207.61180345 338.45231668 215.81506902 334.23632812 224.01757812 C329.58859018 233.05975684 324.93281438 242.09575244 320.17382812 251.08007812 C317.33349543 256.4432053 314.55637844 261.82997853 311.86132812 267.26757812 C308.43263924 274.17960707 304.91301567 281.04297053 301.36132812 287.89257812 C300.83684082 288.91061523 300.31235352 289.92865234 299.77197266 290.97753906 C299.27810059 291.92661133 298.78422852 292.87568359 298.27539062 293.85351562 C297.83404785 294.70478027 297.39270508 295.55604492 296.93798828 296.43310547 C295.73632812 298.51757812 295.73632812 298.51757812 293.73632812 300.51757812 C291.30101599 300.75232664 288.97574673 300.86335001 286.53613281 300.88745117 C285.79445358 300.90219986 285.05277435 300.91694855 284.28862 300.93214417 C281.8284951 300.97674874 279.36860791 301.0049141 276.90820312 301.02929688 C276.06801888 301.03869608 275.22783463 301.04809528 274.36219025 301.05777931 C269.91384646 301.10538262 265.46562123 301.13905204 261.01708984 301.1628418 C256.42502313 301.19053846 251.83534313 301.26968589 247.24415207 301.36038494 C243.71130935 301.42024142 240.17903302 301.44011203 236.64572906 301.44935036 C234.95353195 301.46092787 233.26136659 301.48776472 231.569664 301.53027916 C218.47046311 301.83991908 218.47046311 301.83991908 214.51135254 298.82095337 C212.85806545 296.45587985 211.80149876 294.19663279 210.73632812 291.51757812 C209.88354025 289.82676129 209.02667864 288.13799371 208.16601562 286.45117188 C207.30817274 284.62207298 206.45687961 282.78989143 205.61132812 280.95507812 C204.65092739 278.90994275 203.68862596 276.86569908 202.72460938 274.82226562 C202.23299316 273.7790918 201.74137695 272.73591797 201.23486328 271.66113281 C198.82258355 266.60076887 196.31533068 261.58923792 193.79882812 256.58007812 C193.30116943 255.58814453 192.80351074 254.59621094 192.29077148 253.57421875 C190.77430936 250.5544875 189.25570679 247.53584286 187.73632812 244.51757812 C181.8761627 232.87628612 176.04165726 221.23062435 170.45507812 209.45507812 C166.16607278 200.42168094 161.7478403 191.45716278 157.26757812 182.51757812 C156.94172729 181.86731659 156.61587646 181.21705505 156.28015137 180.54708862 C153.93508222 175.86914169 151.58612115 171.19315355 149.23632812 166.51757812 C133.92396759 136.04932164 133.92396759 136.04932164 126.70655823 120.8500061 C123.42048238 113.93090628 120.07594111 107.04227826 116.70117188 100.16601562 C116.20360382 99.15186584 115.70603577 98.13771606 115.19338989 97.09283447 C113.16705947 92.96507707 111.13888654 88.83822835 109.10961914 84.71191406 C107.59692183 81.63487215 106.08642678 78.55675686 104.57617188 75.47851562 C104.11790512 74.54840668 103.65963837 73.61829773 103.18748474 72.66000366 C102.76266312 71.79364288 102.33784149 70.9272821 101.90014648 70.03466797 C101.52917343 69.28019379 101.15820038 68.5257196 100.77598572 67.74838257 C99.73632812 65.51757813 99.73632812 65.51757813 98.72608948 62.79776001 C97.95848708 60.36099285 97.95848708 60.36099285 95.73632812 59.51757812 C93.2772013 59.38839464 90.84499528 59.3183034 88.38427734 59.29296875 C87.62630356 59.28157867 86.86832977 59.2701886 86.08738708 59.25845337 C78.14959214 59.14771698 70.21086567 59.10035307 62.27246094 59.05761719 C58.5086493 59.03536389 54.74583266 58.99363051 50.98242188 58.93457031 C46.43476199 58.86334423 41.88803659 58.82676474 37.33984756 58.8144989 C35.61028807 58.8041197 33.8807556 58.78174605 32.15151596 58.74690247 C21.24231814 58.2168704 21.24231814 58.2168704 11.79736328 62.9050293 C10.74881978 64.0847399 9.72477286 65.28707514 8.73632812 66.51757812 C7.75664062 67.34902344 6.77695312 68.18046875 5.76757812 69.03710938 C1.88069894 73.94951164 3.10975841 81.31670988 3.23632812 87.20507812 C3.23567999 88.54948153 3.2330934 89.89388548 3.22851562 91.23828125 C2.90739269 97.51711185 2.90739269 97.51711185 4.88232422 103.22875977 C7.42582006 104.99688125 10.05781303 106.26016615 12.86914062 107.56445312 C13.48475861 107.85204498 14.10037659 108.13963684 14.73464966 108.4359436 C16.7739156 109.38634175 18.81750942 110.32701538 20.86132812 111.26757812 C22.30652067 111.93852225 23.75150412 112.60991691 25.19628906 113.28173828 C35.77244981 118.1899178 46.3912073 123.00421371 57.01419067 127.80996704 C68.32185534 132.92801652 79.57416167 138.15755947 90.79882812 143.45507812 C91.53597046 143.80229919 92.27311279 144.14952026 93.03259277 144.50726318 C97.94426904 146.82253935 102.84582533 149.15790026 107.73632812 151.51757812 C108.48630066 151.87909973 109.23627319 152.24062134 110.00897217 152.61309814 C112.25393743 153.6999431 114.49390662 154.79642525 116.73242188 155.89648438 C117.42191422 156.23018539 118.11140656 156.56388641 118.8217926 156.90769958 C123.62094252 159.28680692 123.62094252 159.28680692 124.73632812 161.51757812 C124.84657909 162.88829284 124.89745933 164.26403751 124.91714478 165.63903809 C124.93871643 166.93409271 124.93871643 166.93409271 124.96072388 168.25531006 C124.97654007 169.67967377 124.97654007 169.67967377 124.99267578 171.1328125 C125.00727844 172.13141296 125.0218811 173.13001343 125.03692627 174.15887451 C125.163087 183.38655525 125.23171413 192.6151045 125.28476906 201.84346771 C125.32050697 208.04277014 125.37375005 214.24077241 125.47021484 220.43945312 C125.56320876 226.43304321 125.61171921 232.42548334 125.62916183 238.41975403 C125.6432292 240.70033094 125.67280752 242.98086885 125.7184639 245.2610321 C126.1010604 265.35544487 126.1010604 265.35544487 120.36914062 271.78857422 C118.86161227 273.07589038 117.32051489 274.32586636 115.73632812 275.51757812 C114.69783785 276.60048663 113.68106989 277.70507022 112.69726562 278.83789062 C111.84390625 279.7634375 110.99054688 280.68898438 110.11132812 281.64257812 C106.96852184 285.05194704 103.87494331 288.49295862 100.86132812 292.01757812 C93.6813368 300.29953454 93.6813368 300.29953454 88.81028557 300.66017914 C88.01871622 300.66834908 87.22714687 300.67651901 86.41159058 300.68493652 C85.50325974 300.69642731 84.59492889 300.70791809 83.65907288 300.71975708 C82.65960129 300.72715912 81.6601297 300.73456116 80.63037109 300.7421875 C79.57979019 300.75357758 78.52920929 300.76496765 77.4467926 300.77670288 C66.44992588 300.88737918 55.45238456 300.93479062 44.45507812 300.97753906 C39.2363192 300.9998147 34.0182753 301.04158323 28.79980469 301.10058594 C22.50154151 301.17166156 16.20395141 301.20837003 9.90530777 301.22065735 C7.50591982 301.23106057 5.10655231 301.25349066 2.70739365 301.28825378 C-0.65631682 301.33446937 -4.01738992 301.33645799 -7.38134766 301.328125 C-8.36867386 301.35172089 -9.35600006 301.37531677 -10.37324524 301.39962769 C-16.7690629 301.32312111 -19.99835516 299.90045795 -24.52699089 295.35869598 C-25.10009562 294.75112709 -25.67320034 294.1435582 -26.26367188 293.51757812 C-27.51664215 292.35455605 -28.77612603 291.19847081 -30.04492188 290.05273438 C-31.28619137 288.89699058 -32.52575516 287.73941236 -33.76367188 286.58007812 C-34.41658203 285.96890137 -35.06949219 285.35772461 -35.7421875 284.72802734 C-42.23816973 278.62873396 -48.58101228 272.51424802 -54.2983551 265.66734314 C-56.22169276 263.46191148 -56.22169276 263.46191148 -58.54942322 261.63673401 C-62.17861007 258.57201759 -64.84949465 256.13062294 -66.05422974 251.43869019 C-66.30207487 247.83755772 -66.27725839 244.33953161 -66.14257812 240.73242188 C-66.1298436 239.43558975 -66.11710907 238.13875763 -66.10398865 236.80262756 C-66.06990429 233.38325855 -65.98176922 229.96742614 -65.88165283 226.54943848 C-65.78896032 223.05037271 -65.74834969 219.55072537 -65.703125 216.05078125 C-65.60710269 209.20494299 -65.4538601 202.36143107 -65.26367188 195.51757812 C-57.48582192 195.44164599 -49.70806719 195.38902801 -41.92993164 195.3527832 C-39.28275989 195.33767693 -36.63561324 195.31719082 -33.98852539 195.29125977 C-30.18825086 195.25495821 -26.38830661 195.2378701 -22.58789062 195.22460938 C-20.80652962 195.20138359 -20.80652962 195.20138359 -18.98918152 195.1776886 C-17.88826675 195.17746201 -16.78735199 195.17723541 -15.65307617 195.17700195 C-14.19746529 195.1670092 -14.19746529 195.1670092 -12.71244812 195.15681458 C-10.26367188 195.51757812 -10.26367188 195.51757812 -8.44393921 196.87159729 C-6.6576892 199.3626713 -6.9963909 201.37463554 -7.10351562 204.40039062 C-7.11801758 206.15222656 -7.11801758 206.15222656 -7.1328125 207.93945312 C-7.17796513 210.38543581 -7.2503735 212.83108482 -7.3515625 215.27539062 C-7.36936223 222.31400805 -7.36936223 222.31400805 -4.04541016 228.32128906 C-1.54442507 230.56727351 1.00196053 232.56701522 3.73632812 234.51757812 C4.39632812 235.17757812 5.05632812 235.83757812 5.73632812 236.51757812 C8.52198716 236.81810474 8.52198716 236.81810474 11.82250977 236.76049805 C13.10045914 236.76357468 14.37840851 236.76665131 15.69508362 236.76982117 C17.09555236 236.76292394 18.49601932 236.75565701 19.89648438 236.74804688 C21.32612568 236.74685518 22.75576777 236.74640189 24.18540955 236.74665833 C27.18233131 236.74509321 30.17913366 236.73680073 33.17602539 236.72338867 C37.02542614 236.70638341 40.87469576 236.70257474 44.72412968 236.70333385 C47.67599244 236.7030625 50.62782631 236.69758711 53.57967949 236.69033241 C54.99951394 236.68714138 56.41935168 236.68517733 57.83918953 236.68443871 C59.8193186 236.68228062 61.79943556 236.67275144 63.77954102 236.6628418 C64.90824112 236.65903 66.03694122 236.6552182 67.19984436 236.65129089 C69.67236102 236.80451266 69.67236102 236.80451266 70.73632812 235.51757812 C70.82484342 232.92398491 70.85158757 230.35718121 70.83398438 227.76367188 C70.83256943 226.98822525 70.83115448 226.21277863 70.82969666 225.41383362 C70.82408158 222.92754318 70.81152659 220.44134152 70.79882812 217.95507812 C70.79381506 216.2734388 70.78925182 214.59179806 70.78515625 212.91015625 C70.77410726 208.77926246 70.75683257 204.64843537 70.73632812 200.51757812 C64.12596367 197.10298308 57.45628889 194.05668962 50.55273438 191.28710938 C49.59567093 190.89902603 48.63860748 190.51094269 47.65254211 190.11109924 C45.60111206 189.27945123 43.54900496 188.44947162 41.49627686 187.62103271 C36.01374324 185.40748606 30.53720771 183.17920085 25.06054688 180.95117188 C23.94621277 180.49804626 22.83187866 180.04492065 21.68377686 179.57806396 C5.48054866 172.98123484 -10.6543511 166.22110452 -26.77001953 159.41357422 C-29.59306511 158.22119247 -32.41788177 157.03329473 -35.24560547 155.85205078 C-38.52680279 154.4797191 -41.80246103 153.09515109 -45.07617188 151.70507812 C-45.95869629 151.33882324 -46.8412207 150.97256836 -47.75048828 150.59521484 C-48.54503418 150.25377441 -49.33958008 149.91233398 -50.15820312 149.56054688 C-51.14590698 149.14325317 -51.14590698 149.14325317 -52.15356445 148.7175293 C-59.73381442 144.40688154 -59.73381442 144.40688154 -60.8288641 140.50228214 C-61.05275185 137.98147547 -61.0858024 135.51972847 -61.0559082 132.98901367 C-61.07408852 131.55878876 -61.07408852 131.55878876 -61.09263611 130.09967041 C-61.12411679 126.95057407 -61.11152879 123.8034857 -61.09570312 120.65429688 C-61.10228639 118.4609982 -61.11050402 116.26770386 -61.12028503 114.07441711 C-61.13364314 109.47685316 -61.12478626 104.87998662 -61.10083008 100.2824707 C-61.07228997 94.40077092 -61.10225669 88.52107952 -61.14946461 82.63955975 C-61.17871185 78.10887383 -61.17490883 73.57866447 -61.16144371 69.04792213 C-61.15929465 66.88026173 -61.1677582 64.71256315 -61.18717384 62.54498863 C-61.20977658 59.5068907 -61.18734223 56.47225232 -61.15356445 53.43432617 C-61.16930511 52.54522049 -61.18504578 51.65611481 -61.20126343 50.74006653 C-61.06678181 44.58870763 -59.30974954 41.547542 -55.00625134 37.1779604 C-54.43120011 36.63003425 -53.85614889 36.0821081 -53.26367188 35.51757812 C-52.03390625 34.20466797 -52.03390625 34.20466797 -50.77929688 32.86523438 C-45.80981874 27.85291591 -40.65485268 23.34375179 -35.13476562 18.95117188 C-31.35504612 15.74740963 -27.91203719 12.26612883 -24.49853516 8.67822266 C-16.48913964 0.38049999 -11.33359665 -0.07056628 0 0 Z " fill="#FEFEFE" transform="translate(335.263671875,261.482421875)"/>
<path d="M0 0 C2.64814384 0.76971651 4.54704458 1.72587747 6.8671875 3.203125 C7.67986084 3.71415771 8.49253418 4.22519043 9.32983398 4.75170898 C10.20067627 5.30930908 11.07151855 5.86690918 11.96875 6.44140625 C13.86265663 7.63510617 15.75721064 8.82777947 17.65234375 10.01953125 C18.63187012 10.63763672 19.61139648 11.25574219 20.62060547 11.89257812 C24.44767974 14.28850637 28.30588881 16.62989882 32.17407227 18.95874023 C34.08585672 20.11809546 35.98873373 21.29226234 37.88256836 22.48071289 C42.79830884 25.55404472 47.67836478 28.31893479 52.9375 30.765625 C67.07836844 37.70026058 67.07836844 37.70026058 69.55078125 44.31396484 C70.53745421 50.52249718 69.84460268 56.59564039 69.1496582 62.80708313 C68.48546283 69.27815033 68.63470474 75.65681583 68.8125 82.15234375 C68.87049161 85.47368009 68.92040555 88.79503628 68.96731567 92.11654663 C69.00971534 94.32151131 69.0733595 96.52617638 69.15890503 98.72988892 C69.76605218 115.88029619 69.76605218 115.88029619 66.27716064 120.49554443 C62.82713882 123.50430695 58.86189579 125.2204343 54.6399231 126.89395142 C51.42931428 128.24328915 48.54958066 130.0673425 45.59375 131.89453125 C44.44073647 132.57695241 43.28585191 133.25622185 42.12915039 133.93237305 C41.2631572 134.44034927 41.2631572 134.44034927 40.37966919 134.95858765 C36.63526921 137.1502271 32.88577801 139.3331571 29.13536072 141.51448059 C25.01032689 143.91686284 20.91005941 146.35703297 16.81640625 148.8125 C14.76344135 150.02284898 12.71007887 151.23252392 10.65625 152.44140625 C9.25536133 153.29750488 9.25536133 153.29750488 7.82617188 154.17089844 C6.95669922 154.6765332 6.08722656 155.18216797 5.19140625 155.703125 C4.44383057 156.15002686 3.69625488 156.59692871 2.92602539 157.05737305 C-1.3602961 158.33748141 -4.62380982 156.16713725 -8.40039062 154.17260742 C-9.96563477 153.24411987 -9.96563477 153.24411987 -11.5625 152.296875 C-12.42608376 151.78782623 -12.42608376 151.78782623 -13.30711365 151.26849365 C-15.17668599 150.16476362 -17.04143168 149.05314606 -18.90625 147.94140625 C-20.20744631 147.17141981 -21.50896339 146.40197521 -22.81079102 145.63305664 C-26.07048329 143.7061692 -29.32648439 141.77314483 -32.58135986 139.83813477 C-36.2566734 137.65450757 -39.93698291 135.479325 -43.6171875 133.30395508 C-45.35386929 132.2768434 -47.08964663 131.24819976 -48.82421875 130.2175293 C-53.76633759 127.28663362 -58.73783811 124.41138362 -63.72875977 121.56469727 C-64.69543957 121.0128413 -64.69543957 121.0128413 -65.68164825 120.44983673 C-67.25635981 119.55092045 -68.83128314 118.65237515 -70.40625 117.75390625 C-70.73151814 108.00118321 -70.97980924 98.24976121 -71.13162041 88.49270725 C-71.20451211 83.96103653 -71.30322721 79.43309057 -71.46240234 74.90356445 C-71.61524403 70.52655388 -71.6983607 66.15310786 -71.7345314 61.77363396 C-71.76027981 60.10864031 -71.81057544 58.44382917 -71.88647079 56.7803669 C-72.44053796 44.12578133 -72.44053796 44.12578133 -69.07470322 40.20139122 C-65.77845925 37.41773451 -62.13378016 35.47652958 -58.24373055 33.65217876 C-55.22886131 32.17832688 -52.45374796 30.36886314 -49.6171875 28.578125 C-47.33971746 27.1972178 -45.06114235 25.81829385 -42.78125 24.44140625 C-41.56420746 23.70431982 -40.34724909 22.96709438 -39.13037109 22.22973633 C-30.97864278 17.29351327 -22.81278323 12.3806743 -14.62255859 7.50854492 C-13.88344238 7.06744385 -13.14432617 6.62634277 -12.3828125 6.171875 C-11.69735352 5.76501465 -11.01189453 5.3581543 -10.30566406 4.93896484 C-8.52286774 3.82666493 -6.86505795 2.61971201 -5.1796875 1.3671875 C-2.40625 -0.24609375 -2.40625 -0.24609375 0 0 Z " fill="#301CA0" transform="translate(701.40625,234.24609375)"/>
<path d="M0 0 C2.64814384 0.76971651 4.54704458 1.72587747 6.8671875 3.203125 C7.67986084 3.71415771 8.49253418 4.22519043 9.32983398 4.75170898 C10.20067627 5.30930908 11.07151855 5.86690918 11.96875 6.44140625 C13.86265663 7.63510617 15.75721064 8.82777947 17.65234375 10.01953125 C18.63187012 10.63763672 19.61139648 11.25574219 20.62060547 11.89257812 C24.44767974 14.28850637 28.30588881 16.62989882 32.17407227 18.95874023 C34.08585672 20.11809546 35.98873373 21.29226234 37.88256836 22.48071289 C42.79830884 25.55404472 47.67836478 28.31893479 52.9375 30.765625 C67.07836844 37.70026058 67.07836844 37.70026058 69.55078125 44.31396484 C70.53745421 50.52249718 69.84460268 56.59564039 69.1496582 62.80708313 C68.48546283 69.27815033 68.63470474 75.65681583 68.8125 82.15234375 C68.87049161 85.47368009 68.92040555 88.79503628 68.96731567 92.11654663 C69.00971534 94.32151131 69.0733595 96.52617638 69.15890503 98.72988892 C69.76605218 115.88029619 69.76605218 115.88029619 66.27716064 120.49554443 C62.82713882 123.50430695 58.86189579 125.2204343 54.6399231 126.89395142 C51.42931428 128.24328915 48.54958066 130.0673425 45.59375 131.89453125 C44.44073647 132.57695241 43.28585191 133.25622185 42.12915039 133.93237305 C41.2631572 134.44034927 41.2631572 134.44034927 40.37966919 134.95858765 C36.63526921 137.1502271 32.88577801 139.3331571 29.13536072 141.51448059 C25.01032689 143.91686284 20.91005941 146.35703297 16.81640625 148.8125 C14.76344135 150.02284898 12.71007887 151.23252392 10.65625 152.44140625 C9.25536133 153.29750488 9.25536133 153.29750488 7.82617188 154.17089844 C6.95669922 154.6765332 6.08722656 155.18216797 5.19140625 155.703125 C4.44383057 156.15002686 3.69625488 156.59692871 2.92602539 157.05737305 C-1.3602961 158.33748141 -4.62380982 156.16713725 -8.40039062 154.17260742 C-9.96563477 153.24411987 -9.96563477 153.24411987 -11.5625 152.296875 C-12.42608376 151.78782623 -12.42608376 151.78782623 -13.30711365 151.26849365 C-15.17668599 150.16476362 -17.04143168 149.05314606 -18.90625 147.94140625 C-20.20744631 147.17141981 -21.50896339 146.40197521 -22.81079102 145.63305664 C-26.07048329 143.7061692 -29.32648439 141.77314483 -32.58135986 139.83813477 C-36.2566734 137.65450757 -39.93698291 135.479325 -43.6171875 133.30395508 C-45.35386929 132.2768434 -47.08964663 131.24819976 -48.82421875 130.2175293 C-53.76633759 127.28663362 -58.73783811 124.41138362 -63.72875977 121.56469727 C-64.69543957 121.0128413 -64.69543957 121.0128413 -65.68164825 120.44983673 C-67.25635981 119.55092045 -68.83128314 118.65237515 -70.40625 117.75390625 C-70.73151814 108.00118321 -70.97980924 98.24976121 -71.13162041 88.49270725 C-71.20451211 83.96103653 -71.30322721 79.43309057 -71.46240234 74.90356445 C-71.61524403 70.52655388 -71.6983607 66.15310786 -71.7345314 61.77363396 C-71.76027981 60.10864031 -71.81057544 58.44382917 -71.88647079 56.7803669 C-72.44053796 44.12578133 -72.44053796 44.12578133 -69.07470322 40.20139122 C-65.77845925 37.41773451 -62.13378016 35.47652958 -58.24373055 33.65217876 C-55.22886131 32.17832688 -52.45374796 30.36886314 -49.6171875 28.578125 C-47.33971746 27.1972178 -45.06114235 25.81829385 -42.78125 24.44140625 C-41.56420746 23.70431982 -40.34724909 22.96709438 -39.13037109 22.22973633 C-30.97864278 17.29351327 -22.81278323 12.3806743 -14.62255859 7.50854492 C-13.88344238 7.06744385 -13.14432617 6.62634277 -12.3828125 6.171875 C-11.69735352 5.76501465 -11.01189453 5.3581543 -10.30566406 4.93896484 C-8.52286774 3.82666493 -6.86505795 2.61971201 -5.1796875 1.3671875 C-2.40625 -0.24609375 -2.40625 -0.24609375 0 0 Z M-6.48828125 15.83203125 C-7.55626953 16.49275635 -8.62425781 17.15348145 -9.72460938 17.83422852 C-10.88932869 18.55744513 -12.0540421 19.28067125 -13.21875 20.00390625 C-15.59922402 21.47824238 -17.98091383 22.95060057 -20.36328125 24.421875 C-20.96109406 24.79114609 -21.55890686 25.16041718 -22.17483521 25.5408783 C-28.31730637 29.32795989 -34.51053391 33.02956819 -40.73364258 36.68261719 C-42.1680017 37.53304879 -43.59240856 38.40062932 -45.00337219 39.28933716 C-47.40625 40.75390625 -47.40625 40.75390625 -49.97299194 42.05715942 C-54.07257108 44.38777847 -56.87661492 46.14744318 -58.39263916 50.74577332 C-58.83187198 54.48336235 -58.9493903 58.10365091 -58.9453125 61.8671875 C-58.96733108 63.24573584 -58.99140536 64.62425271 -59.01742554 66.00273132 C-59.05911499 68.88583193 -59.06188233 71.76588484 -59.03955078 74.64916992 C-59.02082561 77.59292996 -59.062375 80.52543017 -59.16259766 83.4675293 C-60.29373106 98.86354509 -60.29373106 98.86354509 -55.92706299 112.99484253 C-52.28981818 116.48380183 -48.12429932 118.34484039 -43.41656494 120.00698853 C-40.60310765 121.05230788 -38.1895107 122.57978454 -35.6640625 124.1875 C-33.02837673 125.73491874 -30.3883527 127.27475778 -27.74829102 128.81469727 C-23.16906172 131.49713893 -18.63540901 134.21993099 -14.17578125 137.09765625 C-13.35899902 137.6191626 -12.5422168 138.14066895 -11.70068359 138.67797852 C-10.16635625 139.66319658 -8.64129051 140.66303993 -7.12744141 141.67944336 C-3.27778908 144.28308401 -3.27778908 144.28308401 1.1640625 144.2734375 C1.96585938 143.77199219 2.76765625 143.27054688 3.59375 142.75390625 C4.63144531 142.2021875 5.66914062 141.65046875 6.73828125 141.08203125 C7.9630464 140.39305849 9.18555264 139.70006075 10.40625 139.00390625 C11.08204102 138.62121582 11.75783203 138.23852539 12.45410156 137.84423828 C21.84045995 132.50701945 31.21673196 127.12644398 40.45550537 121.53744507 C43.59375 119.75390625 43.59375 119.75390625 46.72874451 118.39804077 C53.12514647 115.44152987 53.12514647 115.44152987 56.76022339 109.69393921 C57.26737423 105.85229731 57.39839197 102.10366659 57.36328125 98.23828125 C57.38410527 96.8172788 57.40773003 95.39631493 57.43400574 93.97540283 C57.47415356 91.00187309 57.46866504 88.0326295 57.43286133 85.05908203 C57.40055709 82.02451759 57.43500471 79.00327715 57.53540039 75.97021484 C58.64666654 60.03107589 58.64666654 60.03107589 54.04498291 45.39682007 C50.20503802 41.64769678 45.76353631 39.57803244 40.80453491 37.65924072 C37.48490611 36.29982562 34.70311232 34.42804674 31.703125 32.4609375 C29.58459782 31.16069789 27.46483074 29.86247606 25.34375 28.56640625 C23.21354167 27.26041667 21.08333333 25.95442708 18.953125 24.6484375 C17.92123047 24.01760254 16.88933594 23.38676758 15.82617188 22.73681641 C13.52646003 21.32607172 11.23096944 19.90975413 8.93945312 18.48583984 C8.34086487 18.1147258 7.74227661 17.74361176 7.12554932 17.36125183 C5.44505659 16.31877664 3.76594757 15.27407187 2.08691406 14.22924805 C-1.89437217 11.87330282 -2.62175671 13.43169281 -6.48828125 15.83203125 Z " fill="#FBFAFC" transform="translate(701.40625,234.24609375)"/>
<path d="M0 0 C2.93264216 1.12144236 5.36020438 2.54581678 8.00390625 4.24609375 C9.13443899 4.96378198 10.26602653 5.67981028 11.3984375 6.39453125 C12.0270166 6.7925293 12.6555957 7.19052734 13.30322266 7.60058594 C18.45186753 10.81040564 23.68722321 13.8805892 28.90063477 16.98364258 C29.73393311 17.4814624 30.56723145 17.97928223 31.42578125 18.4921875 C32.17569336 18.93876709 32.92560547 19.38534668 33.69824219 19.84545898 C35.44140625 20.93359375 35.44140625 20.93359375 36.44140625 21.93359375 C36.53418955 23.3151949 36.55887668 24.70147413 36.55493164 26.08618164 C36.55481834 27.40743797 36.55481834 27.40743797 36.55470276 28.75538635 C36.54954147 29.71267136 36.54438019 30.66995636 36.5390625 31.65625 C36.53764755 32.63146103 36.5362326 33.60667206 36.53477478 34.61143494 C36.52915758 37.73968518 36.51660218 40.86786498 36.50390625 43.99609375 C36.49889347 46.11132709 36.49433018 48.22656156 36.49023438 50.34179688 C36.47918256 55.53908671 36.46242771 60.7363352 36.44140625 65.93359375 C35.82490707 66.28350372 35.2084079 66.6334137 34.57322693 66.993927 C32.95977324 67.91012473 31.34700167 68.82752395 29.73461914 69.74560547 C27.8223138 70.83410072 25.90872578 71.92034545 23.99389648 73.00439453 C19.57508732 75.51785925 15.19220419 78.05114943 10.91796875 80.8046875 C10.24967041 81.23015869 9.58137207 81.65562988 8.89282227 82.09399414 C7.66332978 82.88457513 6.44425422 83.69167646 5.23803711 84.51733398 C3.5703125 85.58203125 3.5703125 85.58203125 0.44140625 86.93359375 C-4.24553498 85.7942926 -8.00739429 83.63851666 -12.09375 81.125 C-12.99546181 80.57391823 -12.99546181 80.57391823 -13.91539001 80.01170349 C-15.82082161 78.84547608 -17.72100689 77.67100453 -19.62109375 76.49609375 C-20.90004654 75.71102771 -22.17934057 74.92651731 -23.45898438 74.14257812 C-25.8134468 72.69948473 -28.16540877 71.25260842 -30.51586914 69.80297852 C-33.44260376 67.89461708 -33.44260376 67.89461708 -36.38208008 66.76489258 C-38.91170343 64.63649047 -38.98878779 64.01400011 -39.45947266 60.85205078 C-39.59892047 59.13406389 -39.70530878 57.41319283 -39.78515625 55.69140625 C-39.83617996 54.77522522 -39.88720367 53.85904419 -39.93977356 52.9151001 C-40.07144506 49.96193893 -40.14041696 47.0143312 -40.18359375 44.05859375 C-40.1999588 43.0659552 -40.21632385 42.07331665 -40.23318481 41.05059814 C-40.30413716 24.92383783 -40.30413716 24.92383783 -36.71728516 18.77929688 C-32.030232 14.21126438 -26.44120051 11.99816435 -20.30810547 9.94726562 C-16.15531981 8.41624395 -12.70493045 6.02629293 -9.05859375 3.55859375 C-3.52758466 -0.09155563 -3.52758466 -0.09155563 0 0 Z " fill="#FAF9FC" transform="translate(701.55859375,271.06640625)"/>
<path d="M0 0 C1.06927734 0.63615234 1.06927734 0.63615234 2.16015625 1.28515625 C9.13260445 5.96386448 14.16353247 13.09596413 16.52734375 21.1640625 C18.3282803 31.96968178 18.33512655 44.21182116 13 54 C6.04750236 63.4986685 -1.38162968 68.92745217 -13 71 C-24.85557777 71.98292418 -34.35770225 70.1454847 -44 63 C-51.53019155 56.11479274 -55.44545633 46.87298067 -56.2578125 36.8046875 C-56.60037118 26.41374086 -54.87308225 16.17339511 -48 8 C-35.8491969 -4.72466033 -15.87617655 -9.63374797 0 0 Z " fill="#FCFBFD" transform="translate(733,655)"/>
<path d="M0 0 C5.91948441 5.02180436 9.6869305 10.00691791 11.77734375 17.5078125 C11.77734375 19.1578125 11.77734375 20.8078125 11.77734375 22.5078125 C5.50734375 22.5078125 -0.76265625 22.5078125 -7.22265625 22.5078125 C-8.21265625 20.1978125 -9.20265625 17.8878125 -10.22265625 15.5078125 C-15.63670772 11.34315752 -21.59365118 10.8818019 -28.22265625 11.5078125 C-31.71029507 12.41821342 -34.45953414 13.81854091 -37.16015625 16.2578125 C-38.73395446 19.59056165 -38.73327114 21.86968143 -38.22265625 25.5078125 C-34.86207334 29.54296497 -31.92972313 31.34190106 -26.97265625 32.9453125 C-25.13380859 33.5640625 -25.13380859 33.5640625 -23.2578125 34.1953125 C-21.91311737 34.63390839 -20.56805023 35.07136503 -19.22265625 35.5078125 C5.88205712 43.70804371 5.88205712 43.70804371 11.77734375 54.5078125 C14.95431968 61.16433349 14.68044108 69.18225537 12.71484375 76.1953125 C9.62229453 84.19871535 4.09650994 88.87295185 -3.5 92.5 C-9.87915873 94.86129548 -15.7176728 95.87421488 -22.47265625 95.8203125 C-23.20991943 95.81539795 -23.94718262 95.8104834 -24.70678711 95.80541992 C-35.50997968 95.5764641 -45.20807773 93.26774153 -53.16015625 85.65234375 C-59.84521649 78.45197679 -61.22265625 73.64280572 -61.22265625 63.5078125 C-54.95265625 63.5078125 -48.68265625 63.5078125 -42.22265625 63.5078125 C-41.23265625 66.4778125 -40.24265625 69.4478125 -39.22265625 72.5078125 C-34.97265088 77.11198499 -29.94914946 78.25535942 -23.84765625 78.8203125 C-17.73141978 78.29305074 -12.92166135 77.2877226 -8.59765625 72.7578125 C-6.89304904 68.72874092 -6.98549279 66.68323917 -8.22265625 62.5078125 C-12.84819015 55.76224223 -23.20581264 53.79570332 -30.66015625 51.6328125 C-41.66186049 48.2758357 -51.47048216 44.16291285 -57.25 33.63671875 C-60.07784911 27.16003208 -60.30752045 20.09132883 -58.09765625 13.3828125 C-54.44670042 5.01603872 -49.47033118 0.2790542 -41.22265625 -3.4921875 C-40.33578125 -3.9046875 -39.44890625 -4.3171875 -38.53515625 -4.7421875 C-26.4591637 -8.65872562 -10.51302853 -7.42357617 0 0 Z " fill="#FCFCFD" transform="translate(207.22265625,630.4921875)"/>
<path d="M0 0 C6.93 0 13.86 0 21 0 C26.81760099 17.19322497 32.19285901 34.49672533 37.47314453 51.86132812 C38.52899668 55.33021979 39.58855891 58.79796187 40.6484375 62.265625 C41.1327272 63.86522064 41.1327272 63.86522064 41.62680054 65.49713135 C41.9244632 66.47035339 42.22212585 67.44357544 42.52880859 68.44628906 C42.78971283 69.30450256 43.05061707 70.16271606 43.31942749 71.04693604 C43.83381468 72.97883091 43.83381468 72.97883091 45 74 C46.77386354 68.56348432 48.54437459 63.12588461 50.3125 57.6875 C50.71258774 56.4570546 50.71258774 56.4570546 51.12075806 55.20175171 C55.70931843 41.07878786 60.19632679 26.9257998 64.60864258 12.74682617 C64.83029083 12.03658295 65.05193909 11.32633972 65.28030396 10.59457397 C65.87731547 8.68107994 66.47230122 6.76695419 67.06713867 4.8527832 C68 2 68 2 69 0 C75.93 0 82.86 0 90 0 C83.08232908 21.46251748 76.07623653 42.89211463 68.89794922 64.26904297 C68.34052507 65.9318672 67.78339153 67.59478889 67.2265625 69.2578125 C66.95862885 70.05762543 66.69069519 70.85743835 66.41464233 71.68148804 C64.14801503 78.48240198 61.98908357 85.31567075 59.88394165 92.16824341 C58.10680331 97.89319669 58.10680331 97.89319669 57 99 C55.14630389 99.08737645 53.28932459 99.10698153 51.43359375 99.09765625 C50.30888672 99.09443359 49.18417969 99.09121094 48.02539062 99.08789062 C46.84138672 99.07951172 45.65738281 99.07113281 44.4375 99.0625 C43.24962891 99.05798828 42.06175781 99.05347656 40.83789062 99.04882812 C37.89187774 99.03699675 34.94596319 99.02051287 32 99 C24.10675102 75.4380898 16.28769957 51.85409127 8.62060547 28.2175293 C8.34241974 27.36013657 8.06423401 26.50274384 7.77761841 25.61936951 C7.24259254 23.969898 6.70797054 22.32029542 6.17379761 20.67054749 C4.38037559 15.14047402 2.53930698 9.62882962 0.65087891 4.13037109 C0 2 0 2 0 0 Z " fill="#FCFCFD" transform="translate(591,626)"/>
<path d="M0 0 C8.03457491 5.88037729 12.19814929 13.67824644 14.125 23.3125 C14.125 28.2625 14.125 33.2125 14.125 38.3125 C-2.045 38.3125 -18.215 38.3125 -34.875 38.3125 C-32.21372274 47.62152249 -32.21372274 47.62152249 -25.625 53.625 C-18.87291311 55.31302172 -13.86676842 54.60209835 -7.875 51.3125 C-7.50375 50.6215625 -7.1325 49.930625 -6.75 49.21875 C-4.47915861 46.91006125 -3.7907264 47.01373471 -0.64453125 46.921875 C1.00826401 46.94842593 2.66082663 46.99607539 4.3125 47.0625 C5.15748047 47.08054687 6.00246094 47.09859375 6.87304688 47.1171875 C8.95751573 47.16429414 11.04140144 47.23603767 13.125 47.3125 C11.0360228 55.36572027 7.83737331 61.39082855 0.5859375 65.88671875 C-9.11201179 70.878731 -19.62184861 72.09456016 -30.27734375 69.4765625 C-40.45354435 65.57372109 -47.45312012 59.52409918 -52 49.609375 C-55.92444575 39.30770491 -55.79192037 24.50278507 -51.6875 14.3125 C-50.28515625 11.5859375 -50.28515625 11.5859375 -48.875 9.3125 C-48.31619141 8.40371094 -48.31619141 8.40371094 -47.74609375 7.4765625 C-36.78928221 -7.56519272 -15.07790596 -9.33152021 0 0 Z " fill="#FCFBFD" transform="translate(860.875,655.6875)"/>
<path d="M0 0 C9.40368404 5.89692988 13.63849212 12.9193826 17.10546875 23.3203125 C17.10546875 28.9303125 17.10546875 34.5403125 17.10546875 40.3203125 C0.93546875 40.3203125 -15.23453125 40.3203125 -31.89453125 40.3203125 C-29.18642385 50.0413832 -29.18642385 50.0413832 -22.89453125 55.3203125 C-17.85167705 57.0012639 -13.01748075 56.99838619 -8.08203125 55.0703125 C-4.83413471 53.66353059 -4.83413471 53.66353059 -3.76953125 51.2265625 C-1.49868986 48.91787375 -0.81025765 49.02154721 2.3359375 48.9296875 C3.98873276 48.95623843 5.64129538 49.00388789 7.29296875 49.0703125 C8.13794922 49.08835937 8.98292969 49.10640625 9.85351562 49.125 C11.93798448 49.17210664 14.02187019 49.24385017 16.10546875 49.3203125 C14.58015321 57.9983213 10.11126447 63.25619799 3.10546875 68.3203125 C-5.54177714 73.19550874 -16.36967332 73.71071868 -25.9375 71.671875 C-35.77651823 68.42458266 -42.48641826 62.94555375 -47.703125 54.04296875 C-52.32439181 43.48223771 -52.90080432 29.26530634 -49.45703125 18.2578125 C-45.43121166 9.22426611 -38.38803764 2.36844214 -29.40625 -1.6796875 C-20.1299916 -4.32120268 -8.76466585 -4.31444825 0 0 Z " fill="#FCFBFD" transform="translate(280.89453125,653.6796875)"/>
<path d="M0 0 C7.98521269 5.8348831 13.58187034 12.32748135 16 22 C16 27.94 16 33.88 16 40 C-0.17 40 -16.34 40 -33 40 C-29.68238445 49.73278802 -29.68238445 49.73278802 -22.6875 55.25 C-16.42192762 56.99853183 -11.6780647 56.05741945 -6 53 C-5.62746094 52.3090625 -5.25492188 51.618125 -4.87109375 50.90625 C-2.60343224 48.59598107 -1.91482574 48.7011987 1.23046875 48.609375 C2.88326401 48.63592593 4.53582663 48.68357539 6.1875 48.75 C7.03248047 48.76804687 7.87746094 48.78609375 8.74804688 48.8046875 C10.83251573 48.85179414 12.91640144 48.92353767 15 49 C12.91131651 57.05208797 9.71114576 63.03807841 2.49609375 67.57421875 C-6.80426626 72.41151479 -17.02844094 73.83983156 -27.30078125 71.12890625 C-37.9514684 67.00125748 -45.27849077 60.48054757 -50 50 C-51.65891438 44.47786036 -52.38823791 39.44135658 -52.375 33.6875 C-52.37338867 32.94910889 -52.37177734 32.21071777 -52.37011719 31.44995117 C-52.15600041 21.82414262 -49.0041848 13.28348814 -42.3203125 6.2265625 C-31.94542596 -3.64832951 -12.98827694 -7.79296616 0 0 Z " fill="#FCFBFD" transform="translate(563,654)"/>
<path d="M0 0 C6.27 0 12.54 0 19 0 C19.01458252 1.38711182 19.02916504 2.77422363 19.04418945 4.20336914 C19.10232298 9.36785178 19.17955543 14.53190529 19.26245117 19.69604492 C19.29562968 21.92774471 19.32368348 24.15952698 19.34643555 26.39135742 C19.38011126 29.60631334 19.43243485 32.8205182 19.48828125 36.03515625 C19.49467117 37.02709488 19.5010611 38.01903351 19.50764465 39.04103088 C19.62817993 44.76782115 20.23565436 48.94485647 23 54 C26.85988463 56.85946555 31.39496449 56.52766032 36 56 C39.63644512 54.5858269 42.55683037 53.08610901 45 50 C45.9465414 47.16037579 46.14994224 45.29593471 46.20532227 42.3449707 C46.22526749 41.40422195 46.24521271 40.46347321 46.26576233 39.49421692 C46.28247482 38.48163315 46.29918732 37.46904938 46.31640625 36.42578125 C46.33718735 35.38681198 46.35796844 34.34784271 46.37937927 33.27738953 C46.44480656 29.95582747 46.50372821 26.63418584 46.5625 23.3125 C46.60569169 21.0618407 46.64930619 18.81118948 46.69335938 16.56054688 C46.80048103 11.04044631 46.90176789 5.52026563 47 0 C53.27 0 59.54 0 66 0 C66 24.09 66 48.18 66 73 C59.73 73 53.46 73 47 73 C46.67 69.7 46.34 66.4 46 63 C45.21625 64.0725 44.4325 65.145 43.625 66.25 C39.08374293 71.48093396 33.80216193 73.51915292 27.00390625 74.37890625 C19.38436585 74.6798053 13.17527363 73.45192579 7.21875 68.52734375 C-0.23427169 60.80031391 -0.43497668 50.58877324 -0.29296875 40.4296875 C-0.28872391 39.26744659 -0.28447906 38.10520569 -0.28010559 36.90774536 C-0.26343926 33.22991847 -0.22580894 29.55265864 -0.1875 25.875 C-0.17243762 23.36719547 -0.15875195 20.85938226 -0.14648438 18.3515625 C-0.11357513 12.23415964 -0.06187619 6.11717565 0 0 Z " fill="#FCFCFD" transform="translate(382,652)"/>
<path d="M0 0 C0.83233154 0.00684814 1.66466309 0.01369629 2.5222168 0.02075195 C12.00141571 0.26702481 19.95568229 2.54149161 26.6875 9.4375 C30.59180148 14.53478249 32.6875 18.97690916 32.6875 25.4375 C29.60488544 25.6121397 26.52354167 25.71844067 23.4375 25.8125 C22.56480469 25.86277344 21.69210937 25.91304687 20.79296875 25.96484375 C18.29271323 26.02210151 16.12542851 26.00438086 13.6875 25.4375 C11.328125 22.5390625 11.328125 22.5390625 9.6875 19.4375 C5.47857328 16.51322562 0.61208885 16.80733934 -4.3125 17.4375 C-8.79285444 19.63694673 -11.17562614 21.93881818 -13.3125 26.4375 C-15.67276607 33.70113572 -15.51694164 43.65477028 -12.5625 50.6875 C-10.2572142 55.02111148 -7.97064445 56.88478518 -3.3125 58.4375 C2.13363611 58.85643355 5.93099417 58.18163798 10.6875 55.4375 C11.6775 53.4575 12.6675 51.4775 13.6875 49.4375 C19.9575 49.4375 26.2275 49.4375 32.6875 49.4375 C31.58416037 58.26421703 29.55908597 62.66779787 23.3125 68.75 C12.83008572 75.48869489 2.72980886 77.02124167 -9.61328125 74.859375 C-18.29510051 72.38207249 -24.95218745 67.48192213 -29.97265625 59.9453125 C-36.03545862 48.59744334 -37.13204285 36.011002 -33.6875 23.625 C-30.62128185 14.72653475 -25.55189635 8.13978176 -17.3125 3.4375 C-11.53893493 0.67952188 -6.35993621 -0.08050552 0 0 Z " fill="#FCFBFD" transform="translate(340.3125,650.5625)"/>
<path d="M0 0 C6.27 0 12.54 0 19 0 C19 6.6 19 13.2 19 20 C24.61 20 30.22 20 36 20 C36 25.28 36 30.56 36 36 C30.39 36 24.78 36 19 36 C19.07395738 41.21527032 19.15674207 46.428811 19.26245117 51.64331055 C19.29571464 53.41730812 19.32374218 55.1914119 19.34643555 56.96557617 C19.37995602 59.51527176 19.43226865 62.06399292 19.48828125 64.61328125 C19.49467117 65.40712723 19.5010611 66.20097321 19.50764465 67.01887512 C19.59097777 71.24616995 19.59097777 71.24616995 21.34960938 74.9921875 C23.88899786 76.54286733 26.24590567 76.52934977 29.1875 76.6875 C31.105625 76.790625 33.02375 76.89375 35 77 C35 82.28 35 87.56 35 93 C31.49915355 93.10864696 28.00172828 93.18762825 24.5 93.25 C23.51773438 93.28351563 22.53546875 93.31703125 21.5234375 93.3515625 C15.18930769 93.43601756 10.21356458 92.81594029 5 89 C1.18922746 84.30981841 -0.13099245 80.53743225 -0.11352539 74.59863281 C-0.11344986 73.7380426 -0.11337433 72.87745239 -0.11329651 71.99078369 C-0.10813522 71.07085632 -0.10297394 70.15092896 -0.09765625 69.203125 C-0.0962413 68.25435486 -0.09482635 67.30558472 -0.09336853 66.32806396 C-0.08777742 63.30201038 -0.07522652 60.27603117 -0.0625 57.25 C-0.05748385 55.19661565 -0.05292115 53.14323014 -0.04882812 51.08984375 C-0.03781089 46.05986724 -0.02055233 41.02994622 0 36 C-3.63 36 -7.26 36 -11 36 C-11 30.72 -11 25.44 -11 20 C-7.37 20 -3.74 20 0 20 C0 13.4 0 6.8 0 0 Z " fill="#FCFCFD" transform="translate(766,632)"/>
<path d="M0 0 C0 5.94 0 11.88 0 18 C-2.97 18.12375 -2.97 18.12375 -6 18.25 C-11.56506729 18.68647587 -16.60807714 19.32203505 -21 23 C-24.8785565 27.76073324 -24.47357157 32.6979702 -24.51171875 38.55078125 C-24.52966995 39.56472458 -24.54762115 40.57866791 -24.56611633 41.62333679 C-24.62017846 44.85301592 -24.65410244 48.08254757 -24.6875 51.3125 C-24.72067663 53.50587987 -24.75516661 55.6992403 -24.79101562 57.89257812 C-24.87590287 63.2616123 -24.94273403 68.63060304 -25 74 C-31.27 74 -37.54 74 -44 74 C-44 49.91 -44 25.82 -44 1 C-37.73 1 -31.46 1 -25 1 C-24.67 3.64 -24.34 6.28 -24 9 C-23.29875 8.071875 -22.5975 7.14375 -21.875 6.1875 C-15.65963228 -1.07520869 -9.04175769 -0.2767885 0 0 Z " fill="#FDFDFE" transform="translate(506,651)"/>
<path d="M0 0 C5.53267615 2.45896718 8.39566744 6.68757661 11 12 C13.69056417 20.56553025 12.01415861 29.14111155 8 37 C4.1109948 41.08844137 0.14583346 42.80492423 -5.4375 43.3125 C-10.96827675 42.82734415 -13.88523017 41.1401055 -17.75 37.1875 C-22.97314799 29.78804034 -22.76086548 21.76404313 -22 13 C-20.48592886 7.52479141 -17.77125023 4.13898041 -13 1 C-9.04401183 -0.97799408 -4.31184376 -0.42141249 0 0 Z " fill="#311DA0" transform="translate(719,667)"/>
<path d="M0 0 C0.66 0 1.32 0 2 0 C2 9.9 2 19.8 2 30 C-1.35871093 28.65651563 -4.06445539 27.48965875 -7.1015625 25.6875 C-7.83890625 25.25179688 -8.57625 24.81609375 -9.3359375 24.3671875 C-10.09132813 23.91601562 -10.84671875 23.46484375 -11.625 23 C-12.388125 22.54882812 -13.15125 22.09765625 -13.9375 21.6328125 C-17.00693836 19.8126894 -20.02974259 17.98017161 -23 16 C-23 15.34 -23 14.68 -23 14 C-20.99633789 12.59545898 -20.99633789 12.59545898 -18.22265625 10.99609375 C-17.23458984 10.42052734 -16.24652344 9.84496094 -15.22851562 9.25195312 C-13.66133789 8.35379883 -13.66133789 8.35379883 -12.0625 7.4375 C-10.0110647 6.24982693 -7.96024914 5.06108252 -5.91015625 3.87109375 C-4.99371338 3.34443115 -4.07727051 2.81776855 -3.13305664 2.27514648 C-1.09056786 1.171936 -1.09056786 1.171936 0 0 Z " fill="#311EA0" transform="translate(696,319)"/>
<path d="M0 0 C3.30774657 2.30773016 4.88228692 4.26457385 6.6875 7.875 C6.6875 10.185 6.6875 12.495 6.6875 14.875 C-3.2125 14.875 -13.1125 14.875 -23.3125 14.875 C-22.09854651 6.37732558 -22.09854651 6.37732558 -18.3125 1.875 C-12.55333215 -2.14302408 -6.48648848 -2.20295835 0 0 Z " fill="#2B199C" transform="translate(849.3125,666.125)"/>
<path d="M0 0 C4.67685919 1.6766099 7.43580645 3.72634408 10 8 C10.33 10.64 10.66 13.28 11 16 C0.77 16 -9.46 16 -20 16 C-18.87349808 9.24098849 -17.39625847 6.11762377 -12.3125 1.625 C-8.01904096 -0.48122519 -4.69600276 -0.69133254 0 0 Z " fill="#3620A3" transform="translate(550,665)"/>
<path d="M0 0 C3.29379168 2.29799419 4.83693559 4.31095002 6.6875 7.875 C7.0175 10.185 7.3475 12.495 7.6875 14.875 C-2.5425 14.875 -12.7725 14.875 -23.3125 14.875 C-22.18204662 6.96182635 -22.18204662 6.96182635 -19.5 4.0625 C-18.99855469 3.49917969 -18.49710938 2.93585937 -17.98046875 2.35546875 C-12.70535883 -2.32665457 -6.42820502 -2.18316397 0 0 Z " fill="#2B199C" transform="translate(272.3125,666.125)"/>
<path d="M0 0 C5.48712638 2.19485055 10.25847709 4.971158 15.3125 8 C16.24384766 8.5465625 17.17519531 9.093125 18.13476562 9.65625 C19.01455078 10.1821875 19.89433594 10.708125 20.80078125 11.25 C21.60684814 11.72953125 22.41291504 12.2090625 23.2434082 12.703125 C23.8230835 13.13109375 24.40275879 13.5590625 25 14 C25 14.66 25 15.32 25 16 C22.52100787 17.39614403 20.04180994 18.79192054 17.5625 20.1875 C16.87478516 20.57486328 16.18707031 20.96222656 15.47851562 21.36132812 C10.32898104 24.25943828 5.16562431 27.13020872 0 30 C0 20.1 0 10.2 0 0 Z " fill="#351FA3" transform="translate(669,299)"/>
<path d="M0 0 C8.48951433 4.79111205 16.83494141 9.66771684 25 15 C20.466387 18.93412698 15.43864739 21.78616993 10.25 24.75 C9.37472656 25.25660156 8.49945312 25.76320313 7.59765625 26.28515625 C1.13923518 30 1.13923518 30 0 30 C0 20.1 0 10.2 0 0 Z " fill="#301D9F" transform="translate(704,319)"/>
<path d="M0 0 C0 9.9 0 19.8 0 30 C-6.19192108 26.90403946 -12.20908487 23.85601243 -18.125 20.3125 C-18.7953125 19.92255859 -19.465625 19.53261719 -20.15625 19.13085938 C-21.8070088 18.14545744 -23.40924491 17.07959245 -25 16 C-25 15.34 -25 14.68 -25 14 C-24.03513672 13.48953125 -24.03513672 13.48953125 -23.05078125 12.96875 C-16.38736301 9.39464835 -9.95390124 5.55927443 -3.5546875 1.5390625 C-1 0 -1 0 0 0 Z " fill="#331FA2" transform="translate(698,279)"/>
<path d="M0 0 C0 9.9 0 19.8 0 30 C-12.65371622 23.09797297 -12.65371622 23.09797297 -18.6875 19.625 C-19.30560547 19.27050781 -19.92371094 18.91601562 -20.56054688 18.55078125 C-22.04095744 17.70155349 -23.52057319 16.85094038 -25 16 C-25 15.34 -25 14.68 -25 14 C-24.48614746 13.71801758 -23.97229492 13.43603516 -23.44287109 13.14550781 C-21.08538473 11.84976582 -18.73018666 10.54991698 -16.375 9.25 C-15.56675781 8.8065625 -14.75851562 8.363125 -13.92578125 7.90625 C-10.36094146 5.93544426 -6.84988835 3.95839712 -3.4765625 1.671875 C-1 0 -1 0 0 0 Z " fill="#3620A4" transform="translate(732,299)"/>
<path d="M0 0 C5.99305138 2.99652569 11.85252052 5.95477739 17.625 9.3125 C18.55892578 9.85100586 18.55892578 9.85100586 19.51171875 10.40039062 C21.00928874 11.26437331 22.50487488 12.13179334 24 13 C24 13.66 24 14.32 24 15 C22.55053711 16.08154297 22.55053711 16.08154297 20.52734375 17.2421875 C19.79193359 17.66886719 19.05652344 18.09554688 18.29882812 18.53515625 C17.51958984 18.97730469 16.74035156 19.41945313 15.9375 19.875 C15.18533203 20.30941406 14.43316406 20.74382812 13.65820312 21.19140625 C11.44311481 22.46867795 9.22229684 23.73531568 7 25 C4.69 26.32 2.38 27.64 0 29 C0 19.43 0 9.86 0 0 Z " fill="#331FA1" transform="translate(704,280)"/>
<path d="M0 0 C0.87454834 0.00523682 1.74909668 0.01047363 2.65014648 0.01586914 C3.59438477 0.0190918 4.53862305 0.02231445 5.51147461 0.02563477 C6.50469727 0.03401367 7.49791992 0.04239258 8.52124023 0.05102539 C9.51833008 0.05553711 10.51541992 0.06004883 11.54272461 0.06469727 C14.01478872 0.07652532 16.48673541 0.0930069 18.95874023 0.11352539 C19.61874023 1.43352539 20.27874023 2.75352539 20.95874023 4.11352539 C21.94874023 4.11352539 22.93874023 4.11352539 23.95874023 4.11352539 C22.03297908 6.55282285 20.15783429 8.91443134 17.95874023 11.11352539 C17.95874023 7.81352539 17.95874023 4.51352539 17.95874023 1.11352539 C11.68874023 1.11352539 5.41874023 1.11352539 -1.04125977 1.11352539 C-1.04125977 24.87352539 -1.04125977 48.63352539 -1.04125977 73.11352539 C-2.03125977 73.60852539 -2.03125977 73.60852539 -3.04125977 74.11352539 C-3.06438461 64.61278214 -3.08217557 55.11204851 -3.09307194 45.6112833 C-3.09830046 41.20015535 -3.10539754 36.78904659 -3.11669922 32.37792969 C-3.1275292 28.12451424 -3.13353683 23.8711173 -3.13613701 19.61768913 C-3.13799106 17.99130906 -3.14161129 16.36493005 -3.14698982 14.73855782 C-3.15420175 12.46842346 -3.15525065 10.19836654 -3.15478516 7.92822266 C-3.15700577 6.63360611 -3.15922638 5.33898956 -3.16151428 4.00514221 C-3.00189432 0.16695142 -3.00189432 0.16695142 0 0 Z " fill="#0B0191" transform="translate(463.041259765625,650.886474609375)"/>
<path d="M0 0 C10.23115995 -0.09265338 20.4622202 -0.1637413 30.69371414 -0.20724869 C35.44456036 -0.22812944 40.19511969 -0.2564559 44.94580078 -0.30175781 C49.52993339 -0.3451983 54.11378994 -0.36913343 58.69811249 -0.37950897 C60.44765316 -0.38690359 62.19717862 -0.40134355 63.94660187 -0.42292023 C66.39604925 -0.45193101 68.84435395 -0.45595708 71.29394531 -0.45410156 C72.01827255 -0.46848267 72.74259979 -0.48286377 73.48887634 -0.49768066 C76.89647942 -0.46972368 78.69020899 -0.23621652 81.43475342 1.85650635 C83.19582527 4.26816876 83.67273498 6.05461478 84 9 C81.9754262 7.06745228 80.57894208 5.36841312 79 3 C76.40050442 2.68376729 74.0334689 2.56258239 71.42919922 2.56762695 C70.64862152 2.5574353 69.86804382 2.54724365 69.06381226 2.53674316 C66.47736551 2.50648926 63.89128831 2.49732857 61.3046875 2.48828125 C59.51391354 2.47144371 57.72315147 2.45329473 55.93240356 2.43388367 C51.21421014 2.38627694 46.49606488 2.3565368 41.77770996 2.33044434 C36.96499107 2.30069247 32.15243836 2.25414381 27.33984375 2.20898438 C17.8933159 2.12282996 8.44675396 2.05553885 -1 2 C-0.67 1.34 -0.34 0.68 0 0 Z " fill="#0E0691" transform="translate(352,320)"/>
<path d="M0 0 C0.84175781 -0.00257813 1.68351563 -0.00515625 2.55078125 -0.0078125 C3.87142578 0.00378906 3.87142578 0.00378906 5.21875 0.015625 C6.09917969 0.00789062 6.97960937 0.00015625 7.88671875 -0.0078125 C8.72847656 -0.00523437 9.57023438 -0.00265625 10.4375 0 C11.59668945 0.00338379 11.59668945 0.00338379 12.77929688 0.00683594 C14.71875 0.265625 14.71875 0.265625 16.71875 2.265625 C16.94580078 4.23681641 16.94580078 4.23681641 16.9140625 6.6171875 C16.90761719 7.46796875 16.90117188 8.31875 16.89453125 9.1953125 C16.87777344 10.08476563 16.86101563 10.97421875 16.84375 11.890625 C16.83472656 12.7878125 16.82570313 13.685 16.81640625 14.609375 C16.79280132 16.82823822 16.75692962 19.0469647 16.71875 21.265625 C21.66875 21.265625 26.61875 21.265625 31.71875 21.265625 C31.71875 21.595625 31.71875 21.925625 31.71875 22.265625 C26.10875 22.265625 20.49875 22.265625 14.71875 22.265625 C14.71875 15.665625 14.71875 9.065625 14.71875 2.265625 C8.44875 2.265625 2.17875 2.265625 -4.28125 2.265625 C-4.28125 8.865625 -4.28125 15.465625 -4.28125 22.265625 C-7.91125 22.265625 -11.54125 22.265625 -15.28125 22.265625 C-15.28125 21.605625 -15.28125 20.945625 -15.28125 20.265625 C-12.31125 20.265625 -9.34125 20.265625 -6.28125 20.265625 C-6.30445313 18.98945312 -6.32765625 17.71328125 -6.3515625 16.3984375 C-6.37031829 14.7291725 -6.38851869 13.0599012 -6.40625 11.390625 C-6.42300781 10.54886719 -6.43976562 9.70710937 -6.45703125 8.83984375 C-6.46347656 8.03417969 -6.46992187 7.22851562 -6.4765625 6.3984375 C-6.48703613 5.65480957 -6.49750977 4.91118164 -6.50830078 4.14501953 C-6.01790528 0.0858103 -3.46287227 0.01010847 0 0 Z " fill="#0E0390" transform="translate(770.28125,629.734375)"/>
<path d="M0 0 C0 9.9 0 19.8 0 30 C-12.65371622 23.09797297 -12.65371622 23.09797297 -18.6875 19.625 C-19.30560547 19.27050781 -19.92371094 18.91601562 -20.56054688 18.55078125 C-22.04095744 17.70155349 -23.52057319 16.85094038 -25 16 C-25 15.34 -25 14.68 -25 14 C-22.03 12.68 -19.06 11.36 -16 10 C-16 10.66 -16 11.32 -16 12 C-17.98 12.99 -17.98 12.99 -20 14 C-20 14.66 -20 15.32 -20 16 C-18.38496694 17.22982734 -18.38496694 17.22982734 -16.28125 18.3828125 C-15.59095703 18.78387207 -14.90066406 19.18493164 -14.18945312 19.59814453 C-13.30193359 20.10200684 -12.41441406 20.60586914 -11.5 21.125 C-7.2925 23.538125 -7.2925 23.538125 -3 26 C-3 18.74 -3 11.48 -3 4 C-4.60875 5.010625 -6.2175 6.02125 -7.875 7.0625 C-10.6171875 8.78515625 -10.6171875 8.78515625 -13 10 C-13.66 9.67 -14.32 9.34 -15 9 C-12.68923915 7.49726004 -10.37652089 5.99770448 -8.0625 4.5 C-7.40314453 4.07074219 -6.74378906 3.64148438 -6.06445312 3.19921875 C-1.11328125 0 -1.11328125 0 0 0 Z " fill="#100889" transform="translate(732,299)"/>
<path d="M0 0 C3.69776369 1.43801921 6.41123465 2.97977376 9 6 C8.67 6.99 8.34 7.98 8 9 C7.38125 8.195625 6.7625 7.39125 6.125 6.5625 C4.25835959 3.96125481 4.25835959 3.96125481 2 3 C-3.30130358 2.52233454 -8.25343446 2.10889513 -13.0625 4.5625 C-15.58538531 7.51663919 -15.58538531 7.51663919 -18 14 C-8.43 14 1.14 14 11 14 C11 14.66 11 15.32 11 16 C0.77 16 -9.46 16 -20 16 C-18.87349808 9.24098849 -17.39625847 6.11762377 -12.3125 1.625 C-8.02766363 -0.4769952 -4.68822293 -0.70575399 0 0 Z " fill="#11088B" transform="translate(550,665)"/>
<path d="M0 0 C4.2129476 1.68517904 7.32315889 3.43476202 11 6 C10.01 6.495 10.01 6.495 9 7 C5.535 5.02 5.535 5.02 2 3 C2.33 10.59 2.66 18.18 3 26 C8.50750134 22.71376518 8.50750134 22.71376518 14.00927734 19.41796875 C14.6945752 19.01191406 15.37987305 18.60585938 16.0859375 18.1875 C16.7876709 17.76855469 17.4894043 17.34960938 18.21240234 16.91796875 C20 16 20 16 22 16 C22 15.34 22 14.68 22 14 C21.01 13.67 20.02 13.34 19 13 C19.66 12.67 20.32 12.34 21 12 C23.125 12.9375 23.125 12.9375 25 14 C25 14.66 25 15.32 25 16 C22.52100787 17.39614403 20.04180994 18.79192054 17.5625 20.1875 C16.87478516 20.57486328 16.18707031 20.96222656 15.47851562 21.36132812 C10.32898104 24.25943828 5.16562431 27.13020872 0 30 C0 20.1 0 10.2 0 0 Z " fill="#120B8B" transform="translate(669,299)"/>
<path d="M0 0 C0.33 0 0.66 0 1 0 C1 9.9 1 19.8 1 30 C-10.38461538 24.30769231 -10.38461538 24.30769231 -15.0625 21.3125 C-15.98160156 20.73113281 -16.90070312 20.14976562 -17.84765625 19.55078125 C-20 18 -20 18 -21 16 C-16.60616294 17.59623144 -12.71004193 19.78024333 -8.6875 22.125 C-8.04232422 22.49753906 -7.39714844 22.87007813 -6.73242188 23.25390625 C-5.15324055 24.16632213 -3.57638136 25.08275509 -2 26 C-1.97494385 25.2479126 -1.9498877 24.4958252 -1.92407227 23.72094727 C-1.80849486 20.33460804 -1.68559655 16.94857387 -1.5625 13.5625 C-1.52318359 12.37849609 -1.48386719 11.19449219 -1.44335938 9.97460938 C-1.40146484 8.84990234 -1.35957031 7.72519531 -1.31640625 6.56640625 C-1.27974854 5.52427979 -1.24309082 4.48215332 -1.20532227 3.40844727 C-1 1 -1 1 0 0 Z " fill="#120B8D" transform="translate(697,279)"/>
<path d="M0 0 C0 9.9 0 19.8 0 30 C-5 28 -5 28 -6 26 C-4.68 26.33 -3.36 26.66 -2 27 C-2 19.08 -2 11.16 -2 3 C-4.97 4.65 -7.94 6.3 -11 8 C-9.83630874 4.50892621 -9.11026462 4.14777237 -6.0625 2.3125 C-5.35222656 1.87550781 -4.64195312 1.43851562 -3.91015625 0.98828125 C-2 0 -2 0 0 0 Z " fill="#18118F" transform="translate(698,319)"/>
<path d="M0 0 C1.65 0.99 3.3 1.98 5 3 C4.01 3.495 4.01 3.495 3 4 C2.67 11.59 2.34 19.18 2 27 C3.65 26.01 5.3 25.02 7 24 C7.66 24.33 8.32 24.66 9 25 C7.68921847 25.83603378 6.37632511 26.6687574 5.0625 27.5 C3.96615234 28.19609375 3.96615234 28.19609375 2.84765625 28.90625 C1 30 1 30 0 30 C0 20.1 0 10.2 0 0 Z " fill="#11098D" transform="translate(704,319)"/>
<path d="M0 0 C0.99 0.495 0.99 0.495 2 1 C2.33 8.92 2.66 16.84 3 25 C4.65 24.01 6.3 23.02 8 22 C8.66 22.33 9.32 22.66 10 23 C5.05 25.97 5.05 25.97 0 29 C0 19.43 0 9.86 0 0 Z " fill="#10078E" transform="translate(704,280)"/>
<path d="M0 0 C2.97808457 2.55264392 4.26590786 5.53181572 6 9 C6.66 9.33 7.32 9.66 8 10 C8.66666667 11.66666667 9.33333333 13.33333333 10 15 C10.66 15.33 11.32 15.66 12 16 C12.28875 15.05125 12.5775 14.1025 12.875 13.125 C14 10 14 10 16 8 C15.34580901 13.06998019 13.1453591 17.41990777 11 22 C10.34 22 9.68 22 9 22 C7.4905412 18.90034597 5.99409333 15.79458597 4.5 12.6875 C4.07074219 11.80642578 3.64148438 10.92535156 3.19921875 10.01757812 C2.79316406 9.17001953 2.38710938 8.32246094 1.96875 7.44921875 C1.59169922 6.66893311 1.21464844 5.88864746 0.82617188 5.0847168 C0 3 0 3 0 0 Z " fill="#1D148E" transform="translate(580,471)"/>
<path d="M0 0 C0.33 0 0.66 0 1 0 C1 3.63 1 7.26 1 11 C7.27 11 13.54 11 20 11 C20 11.33 20 11.66 20 12 C13.4 12 6.8 12 0 12 C-0.66 10.02 -1.32 8.04 -2 6 C-3.65 7.32 -5.3 8.64 -7 10 C-7.66 9.67 -8.32 9.34 -9 9 C-8.51789063 8.60167969 -8.03578125 8.20335937 -7.5390625 7.79296875 C-6.90742188 7.26316406 -6.27578125 6.73335937 -5.625 6.1875 C-4.99851562 5.66542969 -4.37203125 5.14335938 -3.7265625 4.60546875 C-1.7778952 2.91774261 -1.7778952 2.91774261 0 0 Z " fill="#140E8C" transform="translate(428,714)"/>
<path d="M0 0 C5.75 1.875 5.75 1.875 8 3 C8 3.66 8 4.32 8 5 C5.4453125 6.76171875 5.4453125 6.76171875 2.125 8.6875 C1.03445313 9.33074219 -0.05609375 9.97398437 -1.1796875 10.63671875 C-2.11039063 11.08660156 -3.04109375 11.53648437 -4 12 C-4.66 11.67 -5.32 11.34 -6 11 C-4.515 10.2265625 -4.515 10.2265625 -3 9.4375 C-2.01 8.633125 -1.02 7.82875 0 7 C0.50125283 3.33142278 0.50125283 3.33142278 0 0 Z " fill="#211691" transform="translate(720,290)"/>
<path d="M0 0 C9.18437638 0.43735126 16.25115873 3.64814939 23 10 C24.875 12.625 24.875 12.625 26 15 C25.67 15.66 25.34 16.32 25 17 C24.45472656 16.32453125 23.90945312 15.6490625 23.34765625 14.953125 C18.40164814 9.10246242 14.34631682 5.29322413 7 3 C6.30003906 2.77828125 5.60007813 2.5565625 4.87890625 2.328125 C3.26352672 1.84708643 1.63309323 1.41695997 0 1 C0 0.67 0 0.34 0 0 Z " fill="#150F8A" transform="translate(191,624)"/>
<path d="M0 0 C1.29920388 3.89761164 0.97248177 7.46161878 0.75 11.5 C0.72292969 12.27214844 0.69585938 13.04429687 0.66796875 13.83984375 C0.42476443 18.36658219 0.32426602 19.67573398 -3 23 C-3 17.06 -3 11.12 -3 5 C-2.34 5 -1.68 5 -1 5 C-0.67 3.35 -0.34 1.7 0 0 Z " fill="#4434A6" transform="translate(807,674)"/>
<path d="M0 0 C2.08218362 -0.10832169 4.16599129 -0.18573541 6.25 -0.25 C7.99023438 -0.31960938 7.99023438 -0.31960938 9.765625 -0.390625 C13 0 13 0 15.375 1.84375 C17.19947005 4.26468141 17.66809114 6.01282024 18 9 C15.9754262 7.06745228 14.57894208 5.36841312 13 3 C9.89188713 2.19458793 9.89188713 2.19458793 6.375 1.8125 C4.59222656 1.57466797 4.59222656 1.57466797 2.7734375 1.33203125 C1.85820312 1.22246094 0.94296875 1.11289062 0 1 C0 0.67 0 0.34 0 0 Z " fill="#1A1492" transform="translate(418,320)"/>
<path d="M0 0 C4.8288023 1.44864069 9.78694365 3.17453739 14 6 C14.33 6.99 14.66 7.98 15 9 C11.32305352 7.62859834 8.04681411 5.96304199 4.6875 3.9375 C3.80449219 3.41027344 2.92148437 2.88304687 2.01171875 2.33984375 C1.34785156 1.89769531 0.68398438 1.45554687 0 1 C0 0.67 0 0.34 0 0 Z " fill="#19118E" transform="translate(704,272)"/>
<path d="M0 0 C0.99 0.495 0.99 0.495 2 1 C2.33 1.99 2.66 2.98 3 4 C3.99 4 4.98 4 6 4 C4.07423885 6.43929746 2.19909405 8.80090595 0 11 C0 7.37 0 3.74 0 0 Z " fill="#130B8D" transform="translate(481,651)"/>
<path d="M0 0 C3.83146596 1.56096761 6.28148054 3.91411305 9 7 C9.8125 9.3125 9.8125 9.3125 10 11 C6.40365256 7.50640535 3.16548033 3.88901869 0 0 Z " fill="#1D168D" transform="translate(207,630)"/>
<path d="M0 0 C0.66 0.99 1.32 1.98 2 3 C1.01 3.33 0.02 3.66 -1 4 C-1.6837045 5.32467746 -2.34964186 6.65863633 -3 8 C-3.99 8.66 -4.98 9.32 -6 10 C-4.34832443 6.4213696 -2.21713508 3.25179812 0 0 Z " fill="#19118E" transform="translate(747,706)"/>
<path d="M0 0 C0.33 0.66 0.66 1.32 1 2 C0.401875 2.268125 -0.19625 2.53625 -0.8125 2.8125 C-2.97224808 3.98493467 -4.35790256 5.19369282 -6 7 C-6.66 6.67 -7.32 6.34 -8 6 C-8 5.34 -8 4.68 -8 4 C-5.36 2.68 -2.72 1.36 0 0 Z " fill="#1F198C" transform="translate(715,309)"/>
<path d="M0 0 C2.31 0.66 4.62 1.32 7 2 C7 2.66 7 3.32 7 4 C7.99 4.33 8.98 4.66 10 5 C9.01 5.495 9.01 5.495 8 6 C6.0546875 5.0390625 6.0546875 5.0390625 3.875 3.625 C3.15054688 3.16351563 2.42609375 2.70203125 1.6796875 2.2265625 C1.12539063 1.82179687 0.57109375 1.41703125 0 1 C0 0.67 0 0.34 0 0 Z " fill="#1A118D" transform="translate(714,241)"/>
</svg>
