<?xml version="1.0" standalone="no"?>
<!DOCTYPE svg PUBLIC "-//W3C//DTD SVG 20010904//EN"
 "http://www.w3.org/TR/2001/REC-SVG-20010904/DTD/svg10.dtd">
<svg version="1.0" xmlns="http://www.w3.org/2000/svg"
 width="1024.000000pt" height="1024.000000pt" viewBox="0 0 1024.000000 1024.000000"
 preserveAspectRatio="xMidYMid meet">

<g transform="translate(0.000000,1024.000000) scale(0.100000,-0.100000)"
fill="#000000" stroke="none">
<path d="M0 5120 l0 -5120 5120 0 5120 0 0 5120 0 5120 -5120 0 -5120 0 0
-5120z m7355 2571 l340 -209 0 -208 c-1 -115 -2 -288 -3 -385 l-2 -177 -187
-110 c-104 -60 -256 -149 -340 -197 l-152 -87 -123 71 c-68 39 -224 130 -348
204 l-225 132 -3 377 -2 377 122 75 c371 228 564 344 573 345 6 0 163 -93 350
-208z m-2624 -93 c30 -20 103 -161 599 -1150 311 -620 567 -1129 570 -1131 3
-3 59 113 125 256 271 595 358 782 366 791 10 11 86 -32 266 -150 79 -51 152
-98 163 -104 16 -9 41 0 141 51 188 94 180 100 95 -64 -86 -166 -357 -692
-544 -1057 -72 -140 -150 -291 -174 -335 l-43 -80 -387 -3 -388 -2 -25 40
c-14 23 -30 51 -35 63 -4 12 -158 324 -340 692 -385 776 -681 1379 -756 1542
-42 90 -5 83 -451 83 l-396 0 -69 -68 -68 -69 0 -144 c0 -101 4 -150 13 -161
6 -9 228 -116 492 -238 723 -334 703 -325 709 -352 3 -12 8 -246 11 -518 l6
-495 -23 -31 c-48 -67 -282 -315 -309 -329 -24 -13 -114 -15 -568 -15 l-541 0
-107 99 c-60 55 -165 160 -235 234 l-128 135 0 291 0 291 274 0 c236 0 277 -2
290 -16 13 -12 16 -41 16 -146 l0 -130 68 -64 67 -63 315 -1 c233 0 319 3 328
12 8 8 12 64 12 185 0 168 -1 173 -22 187 -13 8 -135 60 -273 116 -366 150
-912 378 -948 396 -18 9 -42 26 -54 37 l-23 20 0 494 0 493 43 47 c45 49 298
284 373 346 l46 37 742 0 743 0 34 -22z m-2800 -3612 c145 -31 234 -112 254
-233 l7 -43 -94 0 -94 0 -12 34 c-16 44 -65 75 -129 82 -99 12 -170 -29 -180
-105 -9 -65 24 -89 196 -145 203 -66 252 -94 299 -175 24 -40 27 -57 27 -131
0 -75 -3 -91 -27 -132 -35 -59 -88 -102 -158 -130 -46 -18 -75 -22 -180 -22
-107 0 -133 3 -184 23 -110 44 -196 152 -196 249 l0 42 95 0 c93 0 95 0 95
-24 0 -35 40 -87 85 -110 28 -15 57 -20 106 -20 82 1 126 24 153 77 16 34 17
42 4 75 -17 46 -62 73 -178 107 -186 56 -269 106 -313 189 -29 56 -31 173 -2
231 66 134 240 200 426 161z m4186 -10 c3 -2 58 -177 123 -388 110 -357 118
-380 128 -348 21 76 225 716 231 728 5 9 37 14 109 15 56 1 102 2 102 2 0 0
-74 -223 -164 -495 l-164 -495 -124 -3 -124 -3 -162 494 c-89 272 -162 496
-162 498 0 6 201 1 207 -5z m1733 -156 l0 -100 85 0 86 0 -3 -77 -3 -78 -82
-3 -83 -3 0 -184 c0 -222 1 -225 100 -225 l60 0 0 -80 0 -80 -108 0 c-135 0
-184 20 -219 90 -22 42 -23 56 -23 262 l0 218 -55 0 -55 0 0 80 0 80 55 0 55
0 0 100 0 100 95 0 95 0 0 -100z m-5100 -100 c56 -15 126 -65 164 -117 44 -60
66 -139 66 -231 l0 -72 -245 0 c-227 0 -245 -1 -245 -17 1 -33 38 -100 67
-121 65 -46 174 -36 215 18 21 29 24 30 110 30 48 0 88 -4 88 -9 0 -24 -35
-87 -71 -126 -61 -67 -123 -89 -244 -89 -90 -1 -106 2 -159 28 -75 36 -131 93
-165 165 -24 51 -26 66 -26 181 0 145 14 187 87 266 90 98 217 131 358 94z
m807 -12 c68 -25 136 -92 157 -155 26 -75 27 -73 -77 -73 -90 0 -94 1 -105 25
-29 63 -138 86 -202 42 -59 -39 -75 -79 -75 -187 0 -145 41 -208 142 -217 61
-5 112 20 133 64 l15 33 93 0 c89 0 92 -1 92 -22 -1 -33 -33 -99 -68 -139 -96
-109 -314 -131 -451 -45 -48 31 -99 90 -122 140 -44 102 -48 245 -8 350 65
176 278 258 476 184z m2027 5 c35 -11 67 -33 107 -72 80 -79 105 -153 100
-298 l-1 -43 -246 0 -246 0 7 -27 c20 -81 63 -124 136 -138 51 -9 113 10 143
45 24 29 28 30 111 30 85 0 86 0 79 -22 -24 -81 -80 -144 -159 -180 -41 -19
-67 -23 -145 -23 -84 0 -102 3 -157 29 -75 34 -134 95 -171 174 -24 51 -27 68
-27 172 0 105 2 120 28 175 79 168 252 238 441 178z m1616 16 c186 -30 300
-172 300 -374 0 -105 -29 -190 -86 -254 -83 -92 -178 -128 -310 -118 -138 10
-231 72 -291 194 -37 74 -38 81 -37 177 0 80 5 113 24 160 41 107 145 192 260
215 62 12 67 12 140 0z m1346 -20 c73 -27 128 -79 166 -156 28 -57 33 -79 36
-159 l4 -94 -247 0 -247 0 7 -37 c22 -124 187 -176 272 -87 31 34 33 34 118
34 85 0 86 0 79 -22 -24 -81 -80 -144 -159 -180 -42 -19 -67 -23 -150 -23 -87
0 -107 3 -156 26 -116 55 -178 141 -199 275 -14 92 0 189 40 270 76 155 258
218 436 153z m-3486 -68 l0 -88 -74 -5 c-87 -6 -133 -28 -158 -78 -16 -30 -18
-66 -18 -257 l0 -223 -95 0 -95 0 0 365 0 365 95 0 95 0 0 -52 0 -53 19 31
c18 30 60 65 91 77 8 3 43 6 78 6 l62 1 0 -89z m-1050 -148 c0 -129 5 -244 11
-266 25 -91 163 -104 239 -23 l25 28 3 244 3 244 94 0 95 0 0 -365 0 -365 -95
0 -95 0 0 57 0 58 -31 -38 c-43 -52 -101 -79 -180 -85 -56 -4 -75 -1 -121 21
-120 54 -138 116 -138 464 l0 253 95 0 95 0 0 -227z"/>
<path d="M6790 7636 c-119 -72 -246 -150 -283 -173 l-67 -42 0 -315 0 -314
285 -172 285 -171 237 139 c131 76 257 149 280 162 l42 23 3 320 3 320 -66 43
c-65 41 -474 295 -494 306 -5 3 -107 -54 -225 -126z m383 -202 c89 -53 172
-103 185 -110 22 -14 22 -17 22 -232 l-1 -217 -185 -108 -186 -108 -189 113
-189 113 0 212 0 212 183 110 c100 61 186 110 190 111 4 0 81 -43 170 -96z"/>
<path d="M6858 7377 c-65 -40 -118 -75 -118 -79 0 -4 53 -39 118 -77 l117 -71
3 75 c2 41 2 108 0 149 l-3 75 -117 -72z"/>
<path d="M7040 7296 l0 -145 120 72 c66 40 120 74 120 77 0 3 -31 22 -68 42
-37 21 -91 51 -119 68 l-53 32 0 -146z"/>
<path d="M6690 7101 l0 -150 93 55 c50 30 107 62 125 71 17 9 32 19 32 22 -1
5 -220 140 -242 149 -4 2 -8 -64 -8 -147z"/>
<path d="M7202 7178 c-63 -37 -119 -69 -125 -72 -8 -4 -8 -8 -2 -11 6 -3 62
-36 125 -74 l115 -69 3 74 c2 41 2 107 0 147 l-3 73 -113 -68z"/>
<path d="M6848 6977 c-65 -40 -118 -74 -118 -78 0 -5 218 -138 242 -147 4 -2
8 64 8 147 0 83 -3 151 -7 150 -5 -1 -61 -33 -125 -72z"/>
<path d="M7040 6899 l0 -150 58 32 c57 33 184 109 190 114 2 2 -53 37 -122 79
l-126 75 0 -150z"/>
<path d="M2570 3568 c-43 -29 -68 -65 -76 -105 l-6 -33 157 0 157 0 -7 33 c-4
17 -15 46 -24 62 -35 63 -139 85 -201 43z"/>
<path d="M5395 3576 c-16 -7 -38 -22 -47 -32 -18 -20 -48 -85 -48 -104 0 -6
55 -10 156 -10 l156 0 -6 38 c-17 96 -119 148 -211 108z"/>
<path d="M7050 3548 c-47 -32 -74 -90 -78 -168 -5 -89 12 -146 57 -191 77 -77
199 -56 250 44 35 70 36 184 1 247 -35 62 -80 90 -145 90 -37 0 -61 -6 -85
-22z"/>
<path d="M8343 3574 c-37 -18 -70 -65 -79 -113 l-6 -31 151 0 151 0 0 33 c0
97 -120 158 -217 111z"/>
</g>
</svg>
